<svg id="Warstwa_1" data-name="Warstwa 1" xmlns="http://www.w3.org/2000/svg" viewBox="0 0 128 128"><defs><style>.cls-1{fill:#fff;}</style></defs><path class="cls-1" d="M67.46,121.41H60.77a6.58,6.58,0,0,0-.86-.18A54.27,54.27,0,0,1,35,113.37C20.22,104.31,11.12,91.25,7.92,74.15,7.52,72,7.33,69.84,7,67.68V61c.07-.39.15-.79.21-1.18.36-2.46.56-5,1.09-7.37A55.46,55.46,0,0,1,29.51,19C43.4,8.52,59,5,76.1,8.58a55.15,55.15,0,0,1,33.24,21,55.53,55.53,0,0,1,11.54,40.43A55.13,55.13,0,0,1,107,102a56,56,0,0,1-33,18.57C71.8,120.91,69.62,121.12,67.46,121.41ZM64.13,16.12a48.22,48.22,0,1,0,48.19,48.21A48.24,48.24,0,0,0,64.13,16.12Z"/><path class="cls-1" d="M59.67,51.41c0-4.35,0-8.69,0-13a4.42,4.42,0,0,1,6-4.31c1.81.71,2.81,2.34,2.81,4.64,0,7.35,0,14.71,0,22.06A3.06,3.06,0,0,0,70,63.58c4.77,3.49,9.46,7.07,14.19,10.6a4.42,4.42,0,1,1-4.91,7.34c-1.65-1.14-3.22-2.39-4.83-3.59-4-3-8.05-6.11-12.14-9.07a5.8,5.8,0,0,1-2.61-5.19C59.73,59.58,59.67,55.5,59.67,51.41Z"/></svg>