<?xml version="1.0" encoding="UTF-8"?><svg id="a" xmlns="http://www.w3.org/2000/svg" viewBox="0 0 128 128"><defs><style>.b{fill:#fff;}</style></defs><path class="b" d="M70.91,81.99c-11.4,0-22.79,.02-34.19-.03-.95,0-2.04-.2-2.83-.69-1.21-.73-1.71-2.02-1.37-3.44,.34-1.43,1.26-2.39,2.75-2.68,.47-.09,.95-.09,1.43-.09,22.91,0,45.82,0,68.74-.01,1.33,0,2.56,.19,3.47,1.27,1.61,1.9,.73,4.83-1.67,5.48-.64,.17-1.34,.19-2.02,.19-11.44,.01-22.87,0-34.31,0Z"/><path class="b" d="M76.05,53.45c-11.55,0-23.11,0-34.66,0-2.6,0-4.24-1.9-3.72-4.24,.32-1.46,1.59-2.55,3.15-2.69,.32-.03,.64-.02,.96-.02,22.87,0,45.74,0,68.61,0,2.19,0,3.4,.73,3.98,2.39,.73,2.09-.71,4.34-2.93,4.54-.44,.04-.88,.02-1.32,.02-11.35,0-22.71,0-34.06,0Z"/><path class="b" d="M59.49,67.72c-11.31,0-22.63,0-33.94,0-.56,0-1.12,0-1.68-.06-1.67-.17-2.89-1.41-3.03-3.03-.15-1.75,.79-3.2,2.44-3.65,.57-.16,1.18-.2,1.78-.2,22.95,0,45.9,0,68.84,0,2.36,0,3.61,.79,4.11,2.55,.6,2.09-.74,4.1-2.91,4.34-.55,.06-1.12,.06-1.68,.06-11.31,0-22.63,0-33.94,0Z"/><path class="b" d="M47.43,32.25c9.83,0,19.67,0,29.5,0,2.37,0,3.86,1.25,3.96,3.25,.09,1.76-.96,3.17-2.72,3.58-.5,.12-1.03,.13-1.55,.13-19.51,0-39.02,0-58.53,0-1.61,0-3-.38-3.82-1.94-1.1-2.08,.23-4.7,2.57-4.98,.51-.06,1.04-.05,1.56-.05,9.67,0,19.35,0,29.02,0Z"/><path class="b" d="M48.81,89.35c7.6,0,15.19,0,22.79,0,2.12,0,3.35,.85,3.83,2.56,.53,1.92-.65,3.89-2.61,4.27-.51,.1-1.03,.11-1.55,.11-14.99,0-29.99,0-44.98,0-2.37,0-3.7-.86-4.16-2.65-.53-2.02,.85-4.07,2.94-4.24,1.27-.1,2.56-.06,3.84-.06,6.64,0,13.27,0,19.91,0Z"/></svg>