<?xml version="1.0" encoding="UTF-8"?><svg id="a" xmlns="http://www.w3.org/2000/svg" viewBox="0 0 128 128"><defs><style>.b{fill:#fff;}</style></defs><path class="b" d="M65.91,118.35c-13.76,.12-25.98-4.11-36.54-13-8.06-6.79-13.69-15.25-16.92-25.25-2.48-7.68-3.14-15.57-2.11-23.58,1.69-13.15,7.43-24.27,17.06-33.33,6.6-6.21,14.32-10.53,23.07-12.96,1.58-.44,3.17,.08,4.07,1.31,.99,1.35,.91,2.77-.11,4.34-1.69,2.61-3.6,5.12-4.93,7.9-3.46,7.2-4.57,14.84-3.54,22.77,.96,7.38,3.72,14.03,8.31,19.87,5.64,7.17,12.89,11.94,21.72,14.3,7.04,1.88,14.07,1.88,21.09-.02,5.18-1.4,9.91-3.77,14.17-7.06,.57-.44,1.12-.91,1.72-1.31,1.4-.93,3.07-.97,4.28-.09,1.35,.99,1.54,2.35,1.16,3.86-1.3,5.14-3.17,10.04-5.82,14.64-6.03,10.45-14.63,18.06-25.61,22.96-6.68,2.98-13.72,4.52-21.06,4.64ZM42.8,21.18c-16.18,8.06-28.73,27.84-24.66,50.53,3.84,21.41,22.07,37.91,44.14,39.21,21.99,1.3,39.08-12.38,45.71-26.33-20.04,8.26-38.83,6.47-54.66-8.89-15.86-15.39-18.26-34.14-10.53-54.53Z"/></svg>