<?xml version="1.0" encoding="UTF-8"?><svg id="a" xmlns="http://www.w3.org/2000/svg" viewBox="0 0 128 128"><defs><style>.b{fill:#fff;}</style></defs><path class="b" d="M93.45,64.26c0,16.12-13.13,29.21-29.25,29.17-16.07-.04-29.15-13.13-29.16-29.16,0-16.15,13.14-29.25,29.33-29.21,16.08,.04,29.09,13.11,29.08,29.2Zm-29.21,22.39c12.41,.02,22.43-9.98,22.43-22.4,0-12.35-9.97-22.41-22.27-22.46-12.42-.05-22.55,10-22.58,22.43-.03,12.35,10.03,22.41,22.43,22.43Z"/><path class="b" d="M111.04,60.84c2.4,0,4.8-.01,7.19,0,2.23,.01,3.83,1.48,3.8,3.45-.04,1.92-1.61,3.33-3.8,3.33-4.88,.02-9.75,.02-14.63,0-2.2,0-3.75-1.4-3.78-3.34-.03-2,1.53-3.44,3.78-3.45,2.48-.01,4.96,0,7.43,0Z"/><path class="b" d="M17.54,67.64c-2.4,0-4.79,.01-7.19,0-2.28-.01-3.83-1.41-3.82-3.41,.01-2.02,1.54-3.38,3.83-3.38,4.83,0,9.66-.01,14.49,0,2.31,0,3.79,1.35,3.79,3.4,0,2.03-1.5,3.38-3.81,3.39-2.44,.01-4.87,0-7.31,0Z"/><path class="b" d="M67.64,110.97c0,2.44,.01,4.87,0,7.31-.01,2.17-1.44,3.73-3.38,3.72-1.94,0-3.36-1.55-3.37-3.73-.01-4.91-.01-9.82,0-14.73,0-2.2,1.4-3.7,3.38-3.7,1.97,0,3.36,1.52,3.37,3.71,.01,2.48,0,4.95,0,7.43Z"/><path class="b" d="M67.64,17.58c0,2.47,.01,4.95,0,7.42-.02,2.18-1.43,3.66-3.43,3.64-1.96-.03-3.32-1.48-3.32-3.61-.02-4.95-.01-9.9,0-14.85,0-2.17,1.44-3.68,3.42-3.65,1.94,.02,3.32,1.51,3.33,3.63,.02,2.47,0,4.95,0,7.42Z"/><path class="b" d="M92.39,32.46c.26-.49,.53-1.42,1.12-2.04,2.65-2.76,5.39-5.44,8.12-8.13,1.48-1.46,3.52-1.47,4.93-.07,1.3,1.29,1.25,3.41-.17,4.84-2.72,2.75-5.46,5.5-8.22,8.21-1.12,1.1-2.46,1.27-3.87,.6-1.25-.59-1.76-1.67-1.91-3.4Z"/><path class="b" d="M20.99,103.79c.25-.46,.54-1.37,1.14-1.99,2.66-2.76,5.39-5.44,8.12-8.12,1.37-1.35,3.49-1.38,4.75-.15,1.33,1.3,1.47,3.35,.15,4.73-2.79,2.91-5.64,5.77-8.54,8.56-1.02,.99-2.35,1.13-3.68,.49-1.29-.62-1.85-1.69-1.93-3.52Z"/><path class="b" d="M21.02,25.06c.04-1.99,.76-3.02,2.08-3.6,1.36-.6,2.64-.29,3.66,.7,2.83,2.76,5.63,5.56,8.38,8.39,1.32,1.36,1.21,3.46-.1,4.74-1.28,1.25-3.31,1.31-4.65,0-2.8-2.73-5.58-5.48-8.29-8.3-.59-.62-.87-1.54-1.08-1.93Z"/><path class="b" d="M107.71,104.31c-.33,1.52-.98,2.54-2.3,3.08-1.31,.54-2.57,.35-3.57-.62-2.86-2.78-5.69-5.6-8.47-8.46-1.33-1.37-1.24-3.48,.08-4.76,1.28-1.24,3.42-1.25,4.76,.07,2.79,2.74,5.58,5.49,8.28,8.32,.59,.61,.81,1.57,1.21,2.36Z"/></svg>