<?xml version="1.0" encoding="UTF-8"?><svg id="a" xmlns="http://www.w3.org/2000/svg" viewBox="0 0 128 128"><defs><style>.b{fill:#fff;}</style></defs><path class="b" d="M32.49,85.63c-1.55-1.32-3.06-2.44-4.39-3.75-6.49-6.44-9.26-14.25-8.21-23.32,1.34-11.57,9.67-21.12,21.02-23.78,8.96-2.1,17.2-.33,24.44,5.57,3.16,2.57,5.56,5.71,7.39,9.31,.31,.61,.63,.87,1.34,.9,9.52,.44,16.69,4.88,21.75,12.85,.53,.84,.95,1.76,1.35,2.67,.26,.59,.56,.83,1.25,.8,8.09-.27,14.83,2.71,19.92,8.92,5.21,6.37,6.83,13.73,4.73,21.75-2.85,10.88-12.48,18.23-23.74,18.24-16.43,.01-32.87,0-49.3,.02-5.28,0-9.96-1.48-13.96-5.06-6.75-6.03-8.53-16.07-4.17-24.08,.19-.35,.38-.69,.57-1.04Zm42.08,23.12v-.02c8.12,0,16.24,0,24.36,0,.24,0,.48,0,.72,0,9.32-.07,16.95-7.48,17.25-16.78,.37-11.12-9.44-19.74-20.37-17.9-2.78,.47-3.99-.26-4.88-2.93-2.01-6.02-5.94-10.18-11.89-12.47-8.27-3.18-18.39,.37-22.89,8.01-2.27,3.86-3.26,7.95-2.71,12.4,.17,1.36-.11,2.53-1.16,3.48-.91,.83-1.99,.89-3.14,.85-8.15-.33-14.45,6.64-13.21,14.58,.98,6.24,6.14,10.75,12.49,10.78,8.48,.04,16.96,.01,25.44,.01Zm-8.8-57.3c-2.22-3.88-5.31-6.78-9.31-8.56-11.55-5.16-24.24,.24-28.62,12.08-3.33,8.99,.45,19.8,8.63,24.74,.73,.44,1.26,.41,1.93-.07,2.1-1.53,4.5-2.39,7.02-2.94,.5-.11,1-.2,1.45-.29,.97-12.39,7.21-20.69,18.9-24.96Z"/><path class="b" d="M17.65,81.49c-.07,.95-.48,1.96-1.53,2.59-2.09,1.25-4.16,2.53-6.3,3.69-1.86,1.02-3.89,.4-4.85-1.36-.95-1.75-.31-3.7,1.56-4.78,1.94-1.12,3.84-2.3,5.79-3.38,2.44-1.35,5.35,.31,5.33,3.23Z"/><path class="b" d="M17.65,42.54c.03,2.56-2.65,4.35-4.98,3.19-2.24-1.13-4.41-2.42-6.54-3.75-1.65-1.03-2.06-3.15-1.07-4.75,.98-1.59,3.02-2.12,4.72-1.18,1.92,1.06,3.81,2.17,5.71,3.27,1.23,.72,2.13,1.68,2.15,3.22Z"/><path class="b" d="M77.64,42.44c-.07-1.19,.58-2.16,1.67-2.82,2.09-1.25,4.19-2.47,6.32-3.64,1.61-.88,3.6-.3,4.5,1.2,.97,1.6,.66,3.7-.9,4.69-2.18,1.39-4.42,2.72-6.74,3.87-2.3,1.14-4.86-.61-4.86-3.31Z"/><path class="b" d="M44.14,19.79c0-1.16-.03-2.32,0-3.47,.07-2.15,1.53-3.62,3.53-3.6,1.93,.02,3.36,1.48,3.4,3.58,.05,2.31,.05,4.63,0,6.95-.05,2.12-1.49,3.48-3.51,3.45-1.92-.03-3.34-1.43-3.42-3.44-.05-1.16,0-2.32,0-3.47Z"/></svg>