<?xml version="1.0" encoding="utf-8"?>
<!-- Generator: Adobe Illustrator 26.1.0, SVG Export Plug-In . SVG Version: 6.00 Build 0)  -->
<svg version="1.1" id="Warstwa_1" xmlns="http://www.w3.org/2000/svg" xmlns:xlink="http://www.w3.org/1999/xlink" x="0px" y="0px"
	 viewBox="0 0 264.02 264.02" style="enable-background:new 0 0 264.02 264.02;" xml:space="preserve">
<style type="text/css">
	.st0{fill:#FFFFFF;}
</style>
<g>
	<path class="st0" d="M131.93,155.2c-1.32,1.35-2.5,2.59-3.71,3.8c-13.01,13-26.02,26.01-39.05,38.99
		c-6.6,6.57-16.34,6.89-23.05,0.82c-6.57-5.95-7.14-16.24-1.27-22.89c0.52-0.59,1.08-1.15,1.63-1.71
		c13.7-13.69,27.41-27.37,41.11-41.06c0.35-0.35,0.69-0.72,1.1-1.15c-0.42-0.44-0.79-0.84-1.18-1.23
		c-13.87-13.85-27.75-27.69-41.6-41.55c-6.53-6.54-6.89-16.26-0.92-22.91c5.94-6.62,16.17-7.27,22.91-1.45
		c0.63,0.54,1.22,1.13,1.81,1.72c13.71,13.68,27.41,27.37,41.12,41.05c0.35,0.35,0.72,0.69,1.15,1.1c0.44-0.42,0.85-0.79,1.23-1.18
		c13.84-13.81,27.67-27.64,41.51-41.44c5.85-5.83,13.97-6.89,20.72-2.76c8.63,5.29,10.38,17.32,3.6,24.83
		c-0.84,0.93-1.74,1.8-2.62,2.68c-13.34,13.33-26.68,26.65-40.03,39.98c-0.35,0.35-0.69,0.72-1.1,1.15
		c0.42,0.44,0.79,0.84,1.18,1.23c13.83,13.82,27.68,27.63,41.5,41.45c5.38,5.38,6.72,12.58,3.62,19.11
		c-4.64,9.78-17.51,12.42-25.63,5.26c-0.59-0.52-1.15-1.08-1.71-1.63c-13.71-13.68-27.41-27.37-41.12-41.05
		C132.81,156.03,132.44,155.69,131.93,155.2z"/>
</g>
</svg>
