<?xml version="1.0" encoding="utf-8"?>
<!-- Generator: Adobe Illustrator 26.2.1, SVG Export Plug-In . SVG Version: 6.00 Build 0)  -->
<svg version="1.1" id="Warstwa_1" xmlns="http://www.w3.org/2000/svg" xmlns:xlink="http://www.w3.org/1999/xlink" x="0px" y="0px"
	 viewBox="0 0 128 128" style="enable-background:new 0 0 128 128;" xml:space="preserve">
<style type="text/css">
	.st0{fill:#FFFFFF;}
</style>
<path class="st0" d="M23.2,8.2h55.2c2.9,0.4,5.2,2.1,7.2,4.2c3.4,3.3,6.8,6.6,10.3,9.8c2.4,2.2,3.8,5.3,3.7,8.6c0,9.9,0,19.8,0,29.7
	v1.4c0.4-0.5,0.6-0.7,0.8-1c2.8-3.2,5.5-6.5,8.2-9.7c4.7-5.5,12.5-4.9,16.2,1.2c0.6,1.1,1,2.3,1.3,3.5v2.6c-0.5,2.2-1.5,4.2-3,5.9
	c-7.7,9-15.3,18.1-22.9,27.2c-0.4,0.5-0.6,1.1-0.6,1.7c0,5.5,0,11.1,0,16.6c0.2,5.4-4,10-9.4,10.2c-0.3,0-0.5,0-0.8,0
	c-21.6,0-43.2,0-64.8,0c-1.6,0-3.1-0.4-4.5-1c-3.9-1.8-5.6-5.2-5.6-9.4V49.9c0-10.4,0-20.8,0-31.2c0-3.5,1.2-6.5,4.1-8.5
	C20,9.4,21.6,8.7,23.2,8.2z M93,100c-0.9,0.5-1.6,1-2.4,1.4c-4,1.8-8,3.5-12,5.2c-0.7,0.3-1.4,0.4-2.1,0.2c-2-0.4-2.9-2.1-2.4-4.4
	c0.9-3.9,1.8-7.8,2.8-11.7c0.4-1.8,1.3-3.6,2.5-5c4.3-5.1,8.7-10.2,13-15.4c0.4-0.5,0.6-1.1,0.6-1.8c0-11,0-22.1,0-33.1
	c0-0.3,0-0.7,0-1.1H77.2c-2.6,0-3.8-1.3-3.8-3.8c0-4.9,0-9.8,0-14.6v-1.2H25.2c-3.1,0-4.2,1.1-4.2,4.2v90.3c0,3.1,1.1,4.2,4.2,4.2
	h63.7c0.3,0,0.6,0,0.9,0c1.8,0,3.2-1.5,3.2-3.3c0,0,0-0.1,0-0.1C93.1,106.8,93,103.5,93,100z M112.5,66.8l-5-4.2L89.5,84l5,4.2
	L112.5,66.8z M80,27.8h12.3L80,16V27.8z M116.8,61.8c0.7-0.9,1.5-1.7,2.2-2.6c1.2-1.4,1-3.4-0.4-4.6s-3.4-1-4.6,0.4
	c-0.7,0.8-1.4,1.6-2.2,2.5L116.8,61.8z M85.3,89c-2.6,2.4-2.2,5.9-3.2,8.9c2.8-1.6,6.3-1.7,8.2-4.7L85.3,89z"/>
<path class="st0" d="M57,47.7c8.6,0,17.2,0,25.9,0c2.6,0,4.2,2.1,3.4,4.3c-0.4,1.3-1.5,2.1-2.9,2.2c-0.4,0-0.7,0-1.1,0H31.7
	c-2.6,0-4.1-1.2-4.1-3.3s1.5-3.3,4.1-3.3C40.1,47.7,48.6,47.7,57,47.7z"/>
<path class="st0" d="M57,73.9H31.1c-2.6,0-4.2-2.1-3.4-4.3c0.4-1.3,1.5-2.1,2.9-2.2c0.4,0,0.7,0,1.1,0h50.7c2.6,0,4.1,1.2,4.2,3.3
	s-1.5,3.2-4.1,3.2H57z"/>
<path class="st0" d="M47.2,34.4c-5.4,0-10.8,0-16.2,0c-1.8,0.1-3.4-1.2-3.5-3c-0.1-1.8,1.2-3.4,3-3.5c0.1,0,0.2,0,0.3,0
	c2.5,0,5,0,7.4,0c8.3,0,16.6,0,24.9,0c2.6,0,4.2,2.2,3.4,4.4c-0.5,1.4-1.9,2.2-3.4,2.1L47.2,34.4z"/>
<path class="st0" d="M47.2,87c5.4,0,10.8,0,16.2,0c1.8-0.1,3.4,1.2,3.5,3s-1.2,3.4-3,3.5c-0.2,0-0.3,0-0.5,0H53.2
	c-7.3,0-14.7,0-22,0c-2.6,0-4.2-2.2-3.3-4.5c0.5-1.3,1.9-2.2,3.3-2.1H47.2z"/>
</svg>
