<?xml version="1.0" encoding="UTF-8"?><svg id="a" xmlns="http://www.w3.org/2000/svg" viewBox="0 0 128 128"><defs><style>.b{fill:#fff;}</style></defs><path class="b" d="M95.05,38.93c-3.2,1.85-6.16,3.65-9.22,5.28-1.28,.68-1.96,1.54-2.2,2.95-.24,1.33-.67,2.63-1.07,3.93-.5,1.66-1.6,2.32-3.05,1.89-1.23-.36-1.8-1.58-1.46-3.13,.08-.34,.15-.68,.29-1.3-1.32,.77-2.4,1.42-3.49,2.05-.95,.55-1.94,.79-2.96,.21-1.47-.85-1.37-3.07,.17-3.99,1.23-.73,2.46-1.45,3.94-2.31-.63-.2-1.01-.32-1.4-.44-1.36-.43-2.11-1.6-1.82-2.81,.32-1.34,1.49-2.03,2.97-1.68,1.71,.41,3.39,.92,5.11,1.29,.53,.11,1.22,.08,1.68-.17,3.18-1.76,6.32-3.59,9.47-5.41,.16-.09,.29-.25,.56-.49-1.84-1.06-3.59-2.07-5.34-3.09-1.45-.84-2.93-1.64-4.34-2.55-.78-.5-1.5-.54-2.36-.27-1.6,.49-3.22,.96-4.85,1.32-1.51,.34-2.6-.38-2.91-1.77-.28-1.24,.45-2.32,1.87-2.76,.34-.11,.68-.21,1.23-.37-.33-.28-.53-.5-.77-.64-1.03-.61-2.11-1.15-3.11-1.8-1.22-.79-1.49-2.07-.78-3.22,.7-1.13,1.85-1.45,3.12-.78,1.3,.69,2.56,1.45,4.01,2.28-.15-.64-.27-1.09-.35-1.55-.26-1.4,.41-2.56,1.66-2.9,1.25-.34,2.42,.32,2.84,1.74,.53,1.76,.96,3.55,1.47,5.32,.1,.35,.3,.79,.59,.96,3.4,2.01,6.82,3.98,10.39,6.04,.04-.47,.09-.8,.1-1.13,0-3.48,.03-6.96-.02-10.44,0-.52-.27-1.15-.62-1.54-1.15-1.28-2.39-2.47-3.6-3.69-1.07-1.08-1.2-2.58-.31-3.52,.95-1,2.5-.91,3.6,.23,.24,.25,.37,.59,.56,.89l.39-.24c0-1.3,0-2.6,0-3.9,.01-1.74,.95-2.88,2.36-2.87,1.42,.01,2.31,1.12,2.33,2.9,.01,1.2,.02,2.4,.03,3.6,0,.06,.08,.13,.18,.29,.35-.33,.67-.66,1.01-.96,.96-.83,2.48-.84,3.27-.02,.89,.92,.92,2.39-.01,3.36-1.27,1.33-2.6,2.6-3.88,3.92-.26,.27-.56,.65-.57,.99-.04,3.95-.03,7.9-.03,12.14,1.7-.96,3.2-1.81,4.7-2.67,1.77-1.01,3.55-2,5.27-3.09,.48-.3,.93-.87,1.11-1.41,.53-1.59,.9-3.23,1.36-4.84,.47-1.67,1.59-2.44,2.95-2.06,1.37,.38,1.97,1.61,1.57,3.26-.07,.3-.14,.6-.27,1.18,1.36-.78,2.51-1.44,3.66-2.09,1.51-.85,2.77-.6,3.51,.68,.7,1.19,.29,2.47-1.12,3.34-1.14,.7-2.31,1.34-3.71,2.15,.66,.22,1.02,.35,1.38,.47,1.44,.47,2.16,1.54,1.86,2.77-.33,1.37-1.54,2.1-3.06,1.73-1.59-.38-3.17-.83-4.73-1.31-.85-.26-1.54-.21-2.34,.28-3.01,1.82-6.07,3.54-9.12,5.3-.16,.09-.31,.21-.63,.43,1.47,.85,2.81,1.62,4.14,2.39,2.01,1.16,4,2.34,6.03,3.45,.4,.22,.99,.27,1.45,.17,1.68-.37,3.33-.85,4.99-1.28,1.62-.42,2.88,.2,3.25,1.58,.35,1.28-.45,2.43-2,2.91-.33,.1-.66,.21-1.2,.39,1.34,.79,2.49,1.47,3.65,2.15,1.38,.82,1.84,2.1,1.18,3.32-.62,1.16-1.94,1.52-3.33,.81-1.23-.63-2.41-1.38-3.82-2.2,.14,.73,.26,1.22,.33,1.72,.19,1.32-.48,2.42-1.63,2.7-1.37,.34-2.44-.24-2.87-1.65-.51-1.68-.99-3.37-1.42-5.07-.2-.79-.56-1.27-1.31-1.68-2.98-1.63-5.9-3.37-8.84-5.07-.26-.15-.54-.28-1.02-.52v2.4c0,2.96,.03,5.92-.02,8.88-.02,.88,.25,1.53,.87,2.11,1.07,1.02,2.12,2.06,3.17,3.1,1.33,1.32,1.52,2.78,.52,3.79-1.05,1.05-2.43,.9-3.8-.43-.14-.14-.22-.34-.33-.5l-.32,.1c-.03,.4-.08,.8-.08,1.19-.01,.92,0,1.84,0,2.76-.03,1.67-.97,2.79-2.33,2.8-1.35,0-2.33-1.14-2.35-2.77-.01-1.32,0-2.63,0-4.22-.46,.42-.75,.7-1.05,.96-1.2,1.04-2.55,1.06-3.55,.04-.84-.86-.71-2.39,.32-3.44,1.26-1.29,2.55-2.54,3.79-3.84,.25-.26,.47-.68,.47-1.02,.03-3.92,.02-7.83,.02-12Z"/><path class="b" d="M33.64,89.51c2.99-1.73,5.85-3.5,8.82-5.05,1.49-.78,2.29-1.76,2.52-3.42,.18-1.29,.65-2.55,1.05-3.81,.48-1.5,1.52-2.08,2.95-1.68,1.24,.34,1.83,1.5,1.52,2.96-.08,.38-.16,.76-.31,1.42,1.03-.58,1.84-1.04,2.65-1.5,.52-.29,1.03-.63,1.58-.86,1.24-.52,2.42-.1,2.97,.99,.59,1.17,.18,2.54-.97,3.21-1.19,.69-2.38,1.37-3.85,2.21,.74,.24,1.14,.37,1.54,.51,1.25,.44,1.94,1.64,1.63,2.82-.34,1.3-1.48,2-2.88,1.68-1.71-.4-3.39-.95-5.1-1.31-.59-.13-1.36-.08-1.88,.21-3.08,1.69-6.12,3.47-9.16,5.23-.23,.13-.44,.32-.79,.57,1.13,.67,2.14,1.28,3.16,1.87,2.21,1.28,4.45,2.52,6.64,3.84,.72,.44,1.35,.5,2.14,.26,1.53-.47,3.08-.88,4.62-1.28,1.68-.44,2.83,.13,3.23,1.57,.37,1.33-.35,2.42-1.94,2.91-.34,.11-.68,.21-1.28,.4,1.44,.84,2.69,1.55,3.92,2.31,1.14,.71,1.53,1.9,1.06,2.99-.57,1.31-1.96,1.77-3.32,1.05-1.26-.67-2.49-1.39-4-2.25,.17,.72,.3,1.16,.38,1.61,.25,1.29-.44,2.48-1.63,2.83-1.2,.35-2.42-.26-2.83-1.57-.53-1.71-.89-3.48-1.44-5.19-.19-.58-.63-1.21-1.14-1.52-2.87-1.74-5.79-3.39-8.7-5.07-.36-.21-.75-.38-1.33-.68,0,.73,0,1.24,0,1.74,0,3.2,.03,6.4-.02,9.6-.01,.83,.22,1.41,.83,1.98,1.2,1.11,2.31,2.33,3.46,3.49,1.07,1.07,1.19,2.57,.27,3.52-.99,1.01-2.38,.93-3.5-.19-.25-.25-.51-.49-1.04-.99,0,1.27,0,2.24,0,3.21,0,.6,.03,1.21-.05,1.8-.15,1.19-1.16,2.04-2.31,2.02-1.18-.01-2.24-.96-2.29-2.18-.06-1.52-.01-3.04-.01-4.86-.5,.48-.8,.8-1.13,1.1-1.13,1.03-2.52,1.06-3.42,.09-.89-.96-.81-2.43,.2-3.45,1.27-1.28,2.55-2.54,3.8-3.83,.23-.24,.51-.58,.52-.88,.03-3.99,.02-7.98,.02-12.2-2.3,1.32-4.44,2.54-6.57,3.77-.24,.14-.46,.34-.72,.43-2.92,1-4.36,3.1-4.7,6.1-.08,.71-.34,1.4-.57,2.08-.44,1.34-1.5,2-2.74,1.74-1.26-.26-1.97-1.39-1.76-2.83,.07-.46,.18-.92,.32-1.6-1.31,.73-2.45,1.37-3.59,2-1.57,.88-2.87,.63-3.61-.69-.68-1.22-.2-2.46,1.33-3.36,1.07-.63,2.14-1.24,3.21-1.86,.06-.04,.1-.12,.21-.27-.51-.16-1-.31-1.47-.47-1.29-.46-1.94-1.61-1.61-2.81,.35-1.22,1.48-1.97,2.78-1.66,1.79,.42,3.55,.97,5.33,1.42,.4,.1,.93,.19,1.25,0,3.44-1.93,6.86-3.92,10.37-5.94-.22-.23-.34-.43-.52-.54-3.11-1.8-6.22-3.62-9.37-5.35-.52-.28-1.28-.33-1.88-.21-1.56,.32-3.09,.79-4.64,1.21-1.64,.44-2.89-.11-3.32-1.46-.42-1.34,.42-2.58,2.09-3.08,.26-.08,.51-.16,1.08-.34-1.33-.78-2.43-1.46-3.55-2.08-1.41-.78-1.94-2.02-1.35-3.26,.62-1.29,1.97-1.67,3.47-.89,1.22,.64,2.39,1.36,3.77,2.15-.15-.78-.28-1.32-.34-1.86-.13-1.34,.49-2.27,1.65-2.54,1.38-.32,2.38,.18,2.81,1.56,.56,1.79,.99,3.63,1.55,5.42,.14,.45,.46,.97,.85,1.2,3.2,1.89,6.43,3.73,9.65,5.58,.13,.07,.27,.12,.58,.25,0-.79,0-1.45,0-2.11,0-3.12,.04-6.24-.03-9.36-.01-.6-.3-1.32-.71-1.77-1.15-1.27-2.46-2.4-3.64-3.65-1.37-1.45-.89-3.63,.92-3.99,.65-.13,1.44,.2,2.1,.48,.44,.19,.77,.66,1.36,1.21,0-1.51,0-2.8,0-4.08,0-1.82,.86-2.9,2.29-2.92,1.47-.03,2.37,1.09,2.38,2.96,0,1.23,0,2.46,0,4.03,.54-.48,.84-.75,1.14-1.03,1.11-1.03,2.45-1.05,3.42-.05,.87,.9,.85,2.33-.12,3.35-1.24,1.3-2.56,2.53-3.8,3.83-.3,.32-.6,.8-.61,1.21-.04,3.8-.02,7.6-.01,11.4,0,.11,.07,.22,.16,.48Z"/><path class="b" d="M103.41,111.36c-4.38-.01-7.91-3.59-7.89-7.98,.03-4.38,3.61-7.9,8-7.86,4.33,.04,7.83,3.57,7.83,7.91,0,4.39-3.55,7.93-7.94,7.92Zm.04-11.14c-1.9,0-3.24,1.34-3.23,3.24,0,1.84,1.31,3.17,3.15,3.21,1.9,.03,3.28-1.3,3.29-3.18,.02-1.9-1.32-3.26-3.21-3.26Z"/><path class="b" d="M56.37,64.27c0-4.4,3.52-7.92,7.93-7.9,4.35,.02,7.87,3.5,7.9,7.84,.03,4.37-3.52,7.97-7.9,7.99-4.38,.02-7.93-3.53-7.93-7.93Zm11.1,.15c.06-1.89-1.25-3.33-3.08-3.4-1.82-.07-3.31,1.32-3.37,3.14-.06,1.79,1.28,3.25,3.05,3.31,1.92,.07,3.35-1.2,3.4-3.05Z"/><path class="b" d="M25.02,17.17c4.41-.03,7.95,3.47,7.96,7.88,.02,4.43-3.47,7.93-7.9,7.93-4.36,0-7.86-3.46-7.91-7.82-.05-4.37,3.49-7.97,7.85-8Zm3.29,7.98c.03-1.85-1.37-3.3-3.22-3.31-1.79,0-3.21,1.37-3.25,3.16-.04,1.79,1.33,3.25,3.1,3.3,1.86,.05,3.33-1.33,3.36-3.16Z"/><path class="b" d="M43.26,4.57c1.21,.02,2.28,1.08,2.29,2.3,.02,1.25-1.11,2.37-2.37,2.35-1.22-.03-2.28-1.09-2.29-2.3-.01-1.25,1.1-2.36,2.36-2.34Z"/><path class="b" d="M123.94,85.32c-.02,1.28-1.13,2.34-2.39,2.3-1.22-.04-2.26-1.11-2.25-2.33,0-1.24,1.14-2.33,2.41-2.3,1.23,.03,2.26,1.1,2.24,2.33Z"/><path class="b" d="M87.36,85.07c-.02,1.27-1.14,2.33-2.41,2.29-1.21-.04-2.24-1.13-2.23-2.35,.01-1.26,1.15-2.34,2.41-2.29,1.22,.05,2.25,1.14,2.23,2.35Z"/><path class="b" d="M6.89,41.53c1.21,0,2.29,1.05,2.33,2.26,.03,1.27-1.04,2.36-2.32,2.37-1.27,0-2.36-1.1-2.32-2.36,.03-1.21,1.1-2.26,2.32-2.26Z"/><path class="b" d="M45.88,43.68c-.03,1.26-1.07,2.26-2.33,2.25-1.25-.02-2.29-1.07-2.29-2.31,0-1.27,1.14-2.37,2.41-2.32,1.24,.05,2.23,1.12,2.21,2.38Z"/><path class="b" d="M87.11,121.6c.02,1.2-1.03,2.29-2.25,2.33-1.26,.04-2.4-1.05-2.4-2.3,0-1.22,1.04-2.3,2.25-2.34,1.24-.04,2.38,1.06,2.4,2.31Z"/></svg>