<svg id="Warstwa_1" data-name="Warstwa 1" xmlns="http://www.w3.org/2000/svg" viewBox="0 0 128 128"><defs><style>.cls-1{fill:#fff;}</style></defs><path class="cls-1" d="M31.07,122.28a27.93,27.93,0,0,1-4.42-1.59,12.06,12.06,0,0,1-6.44-11.16q0-17,0-33.95l.06-49.23c0-5.48,2.29-9.65,7.32-12A17.1,17.1,0,0,1,33,13.23a50.11,50.11,0,0,1,5.35,0c0-.59,0-1.08.08-1.55A5.65,5.65,0,0,1,44.16,6.4q20.19,0,40.4,0a5.59,5.59,0,0,1,5.84,5.72c0,.3,0,.6,0,1.07.88,0,1.69,0,2.5,0a38.23,38.23,0,0,1,6.17.45,12.16,12.16,0,0,1,9.38,11.71c.05,2.68,0,5.36,0,8q0,37.85-.07,75.7c0,5.64-2.44,9.78-7.59,12.18a26.45,26.45,0,0,1-3.2,1ZM38.28,20c-1.62,0-3.2,0-4.77,0-4.19,0-6.44,2.24-6.45,6.41q0,41.47-.07,83c0,3.82,2.32,6.15,6.11,6.15q31.18,0,62.36,0a7.5,7.5,0,0,0,1.57-.12c2.93-.61,4.58-2.87,4.59-6.24q0-40.23.07-80.46c0-1.1,0-2.19,0-3.28C101.59,23,100,20.7,97.74,20.3a60.09,60.09,0,0,0-7.23-.43c-.06.39-.09.5-.1.61-.17,4.28-2.25,6.29-6.54,6.29H65.76c-7.2,0-14.41,0-21.61,0a5.61,5.61,0,0,1-5.72-4.91C38.34,21.26,38.33,20.67,38.28,20Zm45.29-6.7H45.21v6.63H83.57Z"/><path class="cls-1" d="M77.68,90.14H89.32c2.28,0,3.8,1.4,3.77,3.44s-1.54,3.34-3.76,3.34H65.94c-2.28,0-3.84-1.39-3.85-3.39s1.57-3.39,3.84-3.4Z"/><path class="cls-1" d="M77.59,44.87H89.23A3.47,3.47,0,0,1,93,48.22c0,2-1.56,3.44-3.8,3.44q-11.64,0-23.29,0c-2.27,0-3.84-1.4-3.84-3.4s1.58-3.38,3.85-3.38Z"/><path class="cls-1" d="M77.58,74.3H65.94c-2.28,0-3.84-1.4-3.85-3.4s1.57-3.39,3.84-3.39q11.66,0,23.29,0c2.25,0,3.84,1.46,3.8,3.45s-1.59,3.33-3.79,3.34Z"/><path class="cls-1" d="M43.08,71.36c2.7-2.69,5.2-5.19,7.69-7.71a3.55,3.55,0,0,1,2.91-1.22,3.2,3.2,0,0,1,2.92,2.16,3.29,3.29,0,0,1-.88,3.72l-8.95,9c-.4.4-.79.82-1.21,1.19a3.27,3.27,0,0,1-4.61,0C39.4,77.07,37.9,75.58,36.47,74a3.37,3.37,0,0,1,4.75-4.77A24.53,24.53,0,0,1,43.08,71.36Z"/><path class="cls-1" d="M43.24,94.11c.82-.93,1.46-1.72,2.17-2.44,1.88-1.91,3.76-3.82,5.69-5.67a3.35,3.35,0,0,1,4.7,0A3.29,3.29,0,0,1,56,90.68Q50.78,96,45.47,101.15a3.18,3.18,0,0,1-4.51,0c-1.55-1.43-3.05-2.93-4.48-4.47A3.33,3.33,0,0,1,36.6,92a3.37,3.37,0,0,1,4.7,0C41.93,92.54,42.46,93.24,43.24,94.11Z"/><path class="cls-1" d="M43.06,47c.49-.47.79-.74,1.07-1,2.27-2.27,4.52-4.55,6.81-6.8A3.41,3.41,0,0,1,55.8,39a3.37,3.37,0,0,1-.08,4.95q-4.94,5-9.92,9.91a3.37,3.37,0,0,1-5.18,0q-2-1.93-3.92-3.92a3.39,3.39,0,1,1,4.76-4.81C42,45.67,42.49,46.31,43.06,47Z"/></svg>