<?xml version="1.0" encoding="utf-8"?>
<!-- Generator: Adobe Illustrator 26.1.0, SVG Export Plug-In . SVG Version: 6.00 Build 0)  -->
<svg version="1.1" id="Warstwa_1" xmlns="http://www.w3.org/2000/svg" xmlns:xlink="http://www.w3.org/1999/xlink" x="0px" y="0px"
	 viewBox="0 0 264.02 264.02" style="enable-background:new 0 0 264.02 264.02;" xml:space="preserve">
<style type="text/css">
	.st0{fill:#FFFFFF;}
</style>
<path class="st0" d="M151.98,131.93c-4.09-3.9-7.74-7.28-11.28-10.78c-6.38-6.3-12.73-12.62-19.01-19.01
	c-5.41-5.51-10.65-11.19-16.09-16.67c-3.31-3.34-7-6.3-10.24-9.7c-3.86-4.06-6.75-8.58-5.48-14.73c1.03-5,3.81-8.41,8.51-10.03
	c5.04-1.73,9.85-0.92,13.81,2.81c3.96,3.73,7.69,7.7,11.58,11.5c6.86,6.7,13.86,13.26,20.65,20.05
	c6.94,6.94,13.66,14.09,20.52,21.11c5.87,6,11.82,11.94,17.73,17.91c2.79,2.82,3.23,11.36,0.46,14.2
	c-9.21,9.43-18.58,18.7-27.84,28.08c-3.3,3.35-6.42,6.88-9.73,10.21c-8.91,8.98-17.88,17.9-26.83,26.84
	c-2.14,2.14-4.28,4.27-6.42,6.41c-5.38,5.38-13.83,5.95-19.02,0.89c-5-4.87-6.58-13.27-1.04-19.36
	c7.35-8.08,15.44-15.49,23.15-23.25c8.78-8.84,17.45-17.77,26.23-26.6C144.83,138.6,148.2,135.53,151.98,131.93z"/>
</svg>
