<?xml version="1.0" encoding="utf-8"?>
<!-- Generator: Adobe Illustrator 26.1.0, SVG Export Plug-In . SVG Version: 6.00 Build 0)  -->
<svg version="1.1" id="Warstwa_1" xmlns="http://www.w3.org/2000/svg" xmlns:xlink="http://www.w3.org/1999/xlink" x="0px" y="0px"
	 viewBox="0 0 264.02 264.02" style="enable-background:new 0 0 264.02 264.02;" xml:space="preserve">
<style type="text/css">
	.st0{fill:#FFFFFF;}
</style>
<g>
	<path class="st0" d="M139.99,264.54c-5.15,0-10.29,0-15.44,0c-0.66-0.15-1.32-0.38-1.99-0.42c-20.61-1.45-39.89-7.35-57.48-18.13
		c-34.13-20.92-55.14-51.08-62.51-90.53c-0.92-4.94-1.38-9.96-2.05-14.95c0-5.15,0-10.29,0-15.44c0.16-0.91,0.34-1.82,0.47-2.73
		c0.82-5.67,1.29-11.42,2.51-17.01c6.88-31.64,23.13-57.57,48.9-77.09C84.46,3.94,120.56-4.12,159.93,4.09
		c31.51,6.57,57.13,23.09,76.73,48.56c21.16,27.51,29.96,58.83,26.65,93.31c-2.68,27.93-13.53,52.6-32.14,73.65
		c-20.41,23.08-45.82,37.46-76.21,42.87C150.01,263.37,144.98,263.86,139.99,264.54z M240.04,132.89
		c0.2-59.12-47.96-107.44-107.54-107.88C73.47,24.57,24.7,73.2,24.5,132.68c-0.2,59.12,47.96,107.44,107.54,107.88
		C191.07,240.99,239.84,192.37,240.04,132.89z"/>
	<path class="st0" d="M114,154.04c3.23-3.28,6.27-6.42,9.36-9.52c19.1-19.11,38.2-38.22,57.31-57.31
		c4.74-4.73,10.07-5.78,15.13-3.03c6.46,3.51,8.28,11.8,3.84,17.66c-0.72,0.95-1.56,1.83-2.4,2.67
		c-24.49,24.51-48.99,49.01-73.5,73.51c-6.54,6.54-13.1,6.51-19.68-0.06c-12.5-12.49-25.01-24.97-37.47-37.49
		c-5.03-5.05-5.52-11.66-1.39-16.67c4.2-5.08,11.46-5.96,16.54-1.75c2.76,2.29,5.22,4.95,7.77,7.5
		C97.58,137.61,105.64,145.68,114,154.04z"/>
</g>
</svg>
