<?xml version="1.0" encoding="UTF-8"?><svg id="a" xmlns="http://www.w3.org/2000/svg" viewBox="0 0 128 128"><defs><style>.b{fill:#fff;}</style></defs><path class="b" d="M64.16,104.84c-11.12,0-22.24,0-33.36,0-8.13,0-14.83-3.1-19.65-9.67-4.67-6.35-5.89-13.45-3.51-21.03,1.98-6.3,6.08-10.85,11.87-13.96,.45-.24,.76-1.07,.82-1.65,.43-3.97,1.75-7.61,3.95-10.93,5.28-7.97,15.57-12.03,24.88-9.8,2.41,.58,2.36,.53,3.85-1.43,6.66-8.78,15.45-13.2,26.53-12.59,10,.55,17.85,5.2,23.47,13.4,4.37,6.38,5.97,13.54,4.83,21.23-.15,1.01,.19,1.41,1.03,1.81,9.62,4.57,14.97,15.84,12.46,26.17-2.71,11.16-12.04,18.41-23.8,18.45-11.12,.04-22.24,0-33.36,0Zm-9.46-57.81c-.28-.12-.61-.26-.93-.42-3.99-1.93-8.12-3.2-12.62-2.39-5.94,1.06-10.17,4.37-12.71,9.83-1.37,2.95-1.63,6.08-1.32,9.27,.08,.82-.14,1.25-.94,1.5-.99,.31-1.94,.72-2.9,1.12-6.25,2.62-10.58,9.77-9.97,16.48,.81,9,7.82,15.58,16.86,15.6,22.64,.06,45.27,.02,67.91,.01,2.97,0,5.8-.66,8.37-2.17,5.49-3.22,8.59-8.02,8.69-14.38,.1-6.36-2.83-11.29-8.26-14.61-1.79-1.1-3.8-1.84-5.71-2.74q-1.49-.71-.98-2.32c1.56-4.9,1.82-9.84,.17-14.74-2.83-8.38-8.55-13.79-17.16-16.01-9.08-2.33-19.35,1.49-24.63,9.21-1.43,2.1-2.55,4.42-3.87,6.74Z"/></svg>