<?xml version="1.0" encoding="UTF-8"?><svg id="a" xmlns="http://www.w3.org/2000/svg" viewBox="0 0 128 128"><defs><style>.b{fill:#fff;}</style></defs><path class="b" d="M95.81,53.97c2.29,0,4.54-.21,6.73,.03,14.43,1.62,24.38,16.15,20.64,30.18-2.55,9.59-8.84,15.51-18.4,17.94-1.72,.44-3.56,.57-5.35,.57-17.4,.04-34.8,.05-52.2,.02-10.57-.02-19.02-6.98-20.88-17.4-1.22-6.83,.61-12.91,5.47-17.98,.14-.14,.26-.3,.43-.51-.75-1.03-1.55-2.02-2.24-3.08-4.63-7.15-5.25-14.72-2.1-22.56,5.11-12.74,19.4-18.66,31.95-13.17,2.52,1.1,4.7,2.97,7.06,4.43,.46,.28,1.07,.52,1.59,.48,9.62-.87,17.3,2.61,23.03,10.32,2.05,2.76,3.31,5.92,3.97,9.3,.09,.46,.19,.92,.29,1.42Zm-22.48,41.79c8.56,0,17.12,.05,25.67-.02,7.32-.06,12.78-3.32,16.17-9.85,4.17-8.04,.78-18.66-7.2-22.91-4.56-2.43-9.24-2.85-14.14-1.3-2.27,.72-4.34-.33-4.77-2.45-.13-.62-.06-1.27-.07-1.91-.12-6.05-2.58-11-7.53-14.41-10.37-7.12-24.13-1.65-27.04,10.59-.83,3.51-.37,6.89,.78,10.25,.71,2.07-.27,4.06-2.29,4.53-.84,.2-1.82,.02-2.7-.18-6.18-1.46-13.03,1.7-15.65,7.25-4.66,9.89,2.01,20.39,12.97,20.4,8.6,0,17.2,0,25.79,0Zm-13.66-60.05c-.66-.38-1.15-.71-1.68-.95-9.89-4.53-20.59-.03-24.05,10.28-2.09,6.22-.79,11.88,3.45,16.89,.51,.6,.92,.7,1.71,.43,1.77-.59,3.6-1,5.42-1.4,.87-.19,1.78-.2,2.62-.29-.88-10.85,3.25-19.06,12.53-24.95Z"/><path class="b" d="M96.72,123.93c-2.76,.04-4.53-2.55-3.48-4.85,1.14-2.51,2.35-4.98,3.6-7.43,.91-1.79,2.98-2.4,4.71-1.5,1.67,.87,2.33,2.85,1.51,4.62-1.1,2.35-2.23,4.68-3.36,7.01-.65,1.33-1.72,2.06-2.97,2.15Z"/><path class="b" d="M85.83,113.23c-.2,.6-.34,1.22-.61,1.79-1.09,2.31-2.22,4.6-3.33,6.9-.73,1.52-2.5,2.35-4.1,1.9-1.67-.47-2.71-2-2.51-3.73,.05-.43,.16-.88,.34-1.26,1.17-2.45,2.33-4.9,3.58-7.31,.73-1.41,2.39-2.05,3.88-1.65,1.53,.41,2.6,1.77,2.74,3.37Z"/><path class="b" d="M43.51,123.94c-2.63,0-4.42-2.46-3.46-4.67,1.14-2.63,2.39-5.22,3.71-7.77,.86-1.65,2.95-2.21,4.56-1.39,1.65,.85,2.42,2.79,1.65,4.48-1.14,2.5-2.34,4.98-3.58,7.44-.62,1.24-1.72,1.84-2.89,1.91Z"/><path class="b" d="M60.98,123.94c-2.47,0-4.22-2.54-3.21-4.8,1.14-2.55,2.37-5.05,3.63-7.55,.83-1.65,2.87-2.28,4.53-1.52,1.63,.75,2.52,2.64,1.8,4.3-1.16,2.67-2.43,5.29-3.76,7.88-.58,1.13-1.68,1.66-2.98,1.69Z"/><path class="b" d="M74.93,14.28c-.4,.8-1.01,2.08-1.69,3.33-.7,1.3-1.46,2.57-2.22,3.83-1.15,1.92-3.15,2.54-4.9,1.54-1.76-1-2.22-3.12-1.1-5.1,1.1-1.94,2.17-3.91,3.32-5.82,.99-1.64,2.55-2.24,4.18-1.73,1.41,.45,2.44,1.87,2.42,3.94Z"/><path class="b" d="M23.54,68.04c0,1.42-.73,2.43-1.89,3.12-2.02,1.21-4.06,2.37-6.12,3.51-1.75,.97-3.74,.4-4.79-1.31-.92-1.5-.5-3.59,1.14-4.62,2.19-1.38,4.43-2.7,6.75-3.84,2.31-1.14,4.9,.61,4.9,3.14Z"/><path class="b" d="M23.45,32.84c-.03,2.74-2.85,4.43-5.18,3.16-2.18-1.18-4.32-2.42-6.44-3.7-1.64-.99-2.13-3.12-1.19-4.72,.97-1.67,3.12-2.24,4.92-1.24,2.09,1.17,4.14,2.4,6.2,3.63,1.12,.67,1.62,1.72,1.69,2.86Z"/><path class="b" d="M32.75,23.53c-1.37,0-2.37-.65-3.05-1.78-1.19-1.98-2.37-3.97-3.48-6-1.09-2-.5-4.12,1.3-5.07,1.85-.97,3.84-.17,4.97,1.91,1.03,1.89,2.17,3.72,3.23,5.6,1.38,2.45-.23,5.34-2.96,5.34Z"/><path class="b" d="M46.8,11.56c0-1.2-.03-2.4,0-3.6,.06-1.89,1.51-3.34,3.35-3.4,1.8-.06,3.48,1.34,3.56,3.19,.11,2.59,.1,5.2,0,7.79-.07,1.91-1.78,3.3-3.65,3.2-1.88-.1-3.22-1.51-3.27-3.47-.03-1.24,0-2.48,0-3.72Z"/><path class="b" d="M11.76,46.8c1.16,0,2.32-.02,3.48,0,2.02,.04,3.46,1.42,3.51,3.35,.06,1.94-1.4,3.54-3.41,3.59-2.4,.06-4.8,.07-7.19,0-1.93-.06-3.38-1.67-3.35-3.54,.03-1.91,1.49-3.35,3.48-3.39,1.16-.03,2.32,0,3.48,0Z"/></svg>