<?xml version="1.0" encoding="UTF-8"?><svg id="a" xmlns="http://www.w3.org/2000/svg" viewBox="0 0 128 128"><defs><style>.b{fill:#fff;}</style></defs><path class="b" d="M35.49,31.92c2.14-15.48,14.87-24.95,27.75-25.41,13.11-.47,27.32,8.67,29.78,25.47,2.25,0,4.54-.2,6.78,.03,11.19,1.18,20.47,10.36,21.91,21.53,1.71,13.31-6.76,25.39-19.88,28.21-1.82,.39-3.73,.5-5.6,.5-21.36,.03-42.71,.07-64.07,0-10.3-.03-17.98-4.75-22.9-13.76-5.72-10.47-2.33-24.72,7.36-31.7,5.42-3.9,11.42-5.6,18.08-4.84,.16,.02,.32,.03,.48,.03,.08,0,.15-.03,.32-.07Zm28.65,43.15c10.88,0,21.75,.09,32.63-.03,6.95-.08,12.35-3.25,15.69-9.34,3.46-6.31,3.11-12.69-.82-18.75-4.34-6.69-12.54-9.47-20.56-7.08-3.17,.94-5.25-.59-5.21-3.86,.07-5.44-1.58-10.27-5.03-14.51-6.06-7.44-17.25-10.04-25.77-5.75-8.3,4.18-12.47,11.04-12.53,20.34-.02,3.16-2.02,4.72-5.03,3.81-3.24-.98-6.48-1.26-9.81-.47-11.85,2.81-17.66,16.02-11.56,26.54,3.5,6.03,8.92,9.03,15.85,9.08,10.72,.08,21.43,.02,32.15,.02Z"/><path class="b" d="M94.9,113.35c-.08,.24-.17,.83-.45,1.28-1.27,1.98-2.56,3.95-3.91,5.88-.85,1.21-2.11,1.72-3.57,1.4-1.49-.32-2.55-1.28-2.78-2.79-.12-.81,0-1.81,.4-2.5,1.19-2.03,2.53-3.97,3.89-5.88,.91-1.28,2.56-1.7,3.96-1.18,1.49,.55,2.47,1.95,2.45,3.8Z"/><path class="b" d="M19.01,118.34c.24-.66,.39-1.38,.75-1.96,1.09-1.76,2.24-3.49,3.41-5.2,1.31-1.92,3.41-2.39,5.19-1.2,1.63,1.09,2.04,3.25,.89,5.08-1.15,1.82-2.35,3.61-3.59,5.37-.95,1.36-2.56,1.87-4.01,1.38-1.58-.53-2.48-1.77-2.65-3.47Z"/><path class="b" d="M62.55,113.05c-.3,.72-.52,1.5-.93,2.15-1,1.63-2.09,3.2-3.15,4.79-1.37,2.07-3.47,2.59-5.34,1.32-1.71-1.16-1.99-3.32-.7-5.28,1.08-1.63,2.14-3.27,3.23-4.89,1.01-1.5,2.63-2.12,4.14-1.64,1.58,.5,2.59,1.85,2.75,3.55Z"/><path class="b" d="M62.53,93.19c-.26,.66-.42,1.38-.78,1.97-1.1,1.76-2.25,3.49-3.42,5.2-1.26,1.84-3.53,2.29-5.25,1.08-1.59-1.12-1.91-3.34-.72-5.13,1.17-1.77,2.31-3.55,3.53-5.27,.96-1.36,2.6-1.86,4.03-1.37,1.5,.52,2.49,1.89,2.62,3.52Z"/><path class="b" d="M42.39,96.49c2.91,.26,4.71,3.11,3.33,5.5-1.19,2.07-2.55,4.04-3.96,5.97-1.11,1.52-3.35,1.79-4.84,.77-1.54-1.06-2.07-3.1-1.06-4.76,1.24-2.04,2.54-4.06,4-5.94,.57-.73,1.67-1.04,2.53-1.54Z"/><path class="b" d="M93,89.27c2.76,.23,4.59,3.11,3.28,5.42-1.22,2.14-2.64,4.17-4.11,6.16-1.06,1.44-3.06,1.66-4.65,.71-1.4-.84-2.17-2.92-1.32-4.4,1.31-2.27,2.78-4.47,4.36-6.55,.51-.67,1.6-.9,2.43-1.33Z"/><path class="b" d="M78.66,100.76c-.15,.36-.34,1.1-.73,1.72-1.08,1.72-2.22,3.4-3.38,5.07-1.28,1.83-3.4,2.29-5.11,1.17-1.67-1.1-2.1-3.19-.93-5.05,1.19-1.89,2.43-3.75,3.73-5.56,.93-1.3,2.61-1.72,4.08-1.18,1.34,.49,2.37,1.99,2.35,3.83Z"/><path class="b" d="M31.85,93.23c-.28,.69-.47,1.44-.86,2.07-1.1,1.76-2.27,3.48-3.44,5.19-1.17,1.71-3.37,2.12-5.08,1-1.59-1.04-2.02-3.27-.9-4.99,1.24-1.91,2.48-3.82,3.81-5.66,.92-1.26,2.61-1.65,3.99-1.1,1.47,.58,2.36,1.89,2.48,3.5Z"/></svg>