<?xml version="1.0" encoding="UTF-8"?><svg id="a" xmlns="http://www.w3.org/2000/svg" viewBox="0 0 128 128"><defs><style>.b{fill:#fff;}</style></defs><path class="b" d="M56.17,93.08c-2.13,0-4.04,.01-5.95,0-2.35-.02-3.32-1.47-2.51-3.65,1.81-4.82,3.61-9.65,5.41-14.48,.11-.29,.18-.59,.31-1.07-.59,0-1.06,0-1.53,0-6.04,0-12.08,.08-18.11-.02-9.73-.17-16.75-4.67-20.78-13.56-4.71-10.37,.79-22.73,11.62-26.26,.87-.28,1.15-.67,1.16-1.59,.22-12.54,11.24-22.33,23.71-20.99,8,.86,13.81,5.02,17.43,12.22,.09,.17,.21,.32,.35,.53,6.84-5.97,14.46-7.64,22.61-3.43,8.11,4.19,11.13,11.36,10.3,20.33,1.25,.19,2.48,.3,3.68,.57,9.73,2.19,15.85,13.42,12.43,22.77-2.08,5.68-7.49,9.4-13.86,9.42-9.32,.04-18.63,.03-27.95-.02-1.13,0-1.61,.36-1.96,1.39-.64,1.88-1.43,3.71-2.24,5.74,.58,.04,1,.09,1.41,.09,2.24,0,4.48,.01,6.72,0,1.09,0,1.97,.38,2.43,1.41,.46,1.02,.2,1.95-.5,2.78-7.15,8.44-14.29,16.89-21.43,25.33-1.5,1.77-2.99,3.54-4.49,5.3-1.05,1.24-2.24,1.58-3.37,.98-1.19-.63-1.56-1.63-1.06-3.3,1.7-5.66,3.45-11.3,5.18-16.96,.34-1.1,.65-2.21,1.03-3.54Zm11.47-24.06c3.76,0,7.52,0,11.28,0,7.92,0,15.84,0,23.76,0,3.21,0,5.81-1.3,7.76-3.84,2.59-3.37,2.58-8.74-.09-12.88-3.02-4.68-7.43-6.6-12.89-6.18-2.52,.19-3.73-1.31-2.95-3.71,.32-.98,.57-2.01,.67-3.03,.58-5.64-1.52-10.17-6.13-13.33-4.7-3.23-9.77-3.44-14.88-.86-2.45,1.24-4.32,3.12-5.73,5.47-.58,.97-1.43,1.57-2.59,1.32-1.07-.23-1.66-.98-1.89-2.08-.23-1.05-.51-2.11-.89-3.11-2.94-7.57-11.43-12.04-19.3-10.2-8.32,1.95-13.88,9.5-13.14,17.86,.2,2.27-.36,2.95-2.56,3.56-10.95,3-15.28,13.81-9.07,23.25,3.45,5.24,8.45,7.75,14.7,7.76,11.32,.01,22.64,0,33.95,0Zm5.77,16.86c-2.38,0-4.49,.04-6.6-.01-2.09-.05-3.08-1.61-2.31-3.55,.68-1.71,1.38-3.4,2.06-5.11,.42-1.05,.8-2.11,1.26-3.32-3.02,0-5.82-.02-8.61,.04-.29,0-.69,.46-.82,.8-.92,2.3-1.79,4.62-2.66,6.94-.81,2.15-1.6,4.31-2.38,6.44,.17,.12,.23,.2,.29,.2,1.84,.02,3.68,.02,5.51,.05,2.18,.03,3.18,1.42,2.54,3.5-.71,2.29-1.43,4.57-2.13,6.86-.53,1.73-1.03,3.46-1.55,5.19,4.91-5.53,9.65-11.13,14.39-16.73,.28-.33,.53-.68,.99-1.28Z"/><path class="b" d="M83.69,98.12c-1.94-.26-3.08-1.9-2.37-3.53,.78-1.79,1.67-3.53,2.6-5.25,.63-1.17,2.09-1.5,3.23-.88,1.08,.59,1.55,1.94,.99,3.1-.81,1.69-1.6,3.4-2.57,5-.4,.66-1.24,1.05-1.88,1.56Z"/><path class="b" d="M100.37,78.78c-.11,.31-.2,.75-.39,1.13-.73,1.51-1.48,3.01-2.25,4.5-.69,1.35-2.03,1.81-3.32,1.18-1.2-.59-1.62-1.94-.97-3.28,.78-1.62,1.58-3.23,2.44-4.8,.55-1.02,1.7-1.44,2.78-1.09,1.06,.35,1.57,1.16,1.72,2.37Z"/><path class="b" d="M73.62,100.29c1.93,.29,3.06,1.95,2.34,3.53-.74,1.64-1.55,3.24-2.41,4.81-.69,1.26-2.02,1.64-3.16,1.04-1.21-.64-1.64-1.97-1.02-3.28,.73-1.55,1.42-3.14,2.32-4.59,.4-.65,1.27-1.02,1.93-1.52Z"/><path class="b" d="M30.28,100.33c1.9,.19,3.11,1.82,2.42,3.4-.75,1.72-1.61,3.39-2.5,5.04-.59,1.09-1.97,1.46-3.03,.95-1.15-.55-1.76-1.84-1.23-3.02,.78-1.75,1.62-3.48,2.6-5.12,.33-.56,1.15-.84,1.74-1.25Z"/><path class="b" d="M35.26,78.99c-.06,.23-.11,.64-.28,1-.71,1.48-1.41,2.96-2.19,4.39-.75,1.38-2.07,1.83-3.31,1.22-1.21-.59-1.63-1.98-.97-3.4,.73-1.55,1.48-3.1,2.33-4.59,.56-.99,1.51-1.42,2.66-1.09,1.07,.3,1.76,1.24,1.76,2.47Z"/><path class="b" d="M18.68,98.08c-1.79-.23-3-1.68-2.38-3.24,.74-1.88,1.7-3.69,2.72-5.43,.59-1.01,1.88-1.21,2.87-.71,1.03,.52,1.66,1.73,1.2,2.82-.78,1.83-1.66,3.62-2.66,5.34-.33,.56-1.15,.82-1.75,1.22Z"/><path class="b" d="M40.29,98.08c-1.69-.24-2.9-1.58-2.35-3.05,.74-2,1.77-3.91,2.84-5.76,.53-.93,1.84-1.04,2.81-.54,1.01,.52,1.64,1.68,1.2,2.71-.8,1.86-1.7,3.69-2.73,5.44-.32,.55-1.16,.81-1.77,1.2Z"/><path class="b" d="M105.4,98.11c-1.89-.22-3.13-1.79-2.5-3.34,.72-1.77,1.6-3.48,2.52-5.16,.62-1.13,2.05-1.45,3.14-.87,1.16,.62,1.62,1.95,1.02,3.19-.74,1.55-1.44,3.13-2.33,4.59-.41,.66-1.23,1.07-1.86,1.6Z"/><path class="b" d="M95.23,100.29c2.02,.26,3.12,2.01,2.31,3.74-.72,1.55-1.51,3.08-2.32,4.59-.67,1.23-2.04,1.66-3.16,1.08-1.17-.61-1.68-1.92-1.11-3.17,.73-1.6,1.45-3.21,2.36-4.7,.4-.66,1.26-1.04,1.91-1.55Z"/></svg>